<svg xmlns="http://www.w3.org/2000/svg" style="display: none;"><symbol id="loud-speaker" viewBox="0 0 511.999 511.999"><title>loud-speaker</title><path style="fill:#556676" d="M19.688,262.7h23.438v-81.72H19.688C8.815,180.979,0,189.794,0,200.667v42.345 C0,253.885,8.815,262.7,19.688,262.7z" data-original="#415E72" class="" data-old_color="#516272"/><path style="fill:#041876" d="M275.838,333.989l15.857,54.187c3.865,13.233-6.053,26.466-19.835,26.466h-30.232l-47.301-47.301 l-9.219-83.887" data-original="#FF6F52" class="" data-old_color="#041875"/><path style="fill:#556676" d="M223.645,331.141l42.699,145.914c3.872,13.229-6.049,26.466-19.831,26.466h-56.815 c-9.176,0-17.254-6.053-19.831-14.86l-56.597-198.861" data-original="#415E72" class="" data-old_color="#516272"/><path style="fill:#2C4862" d="M190.528,488.662l-54.13-190.199l-23.127-8.662l56.595,198.86c2.578,8.807,10.655,14.86,19.831,14.86 h20.662C201.182,503.522,193.104,497.469,190.528,488.662z" data-original="#314A5F" class="" data-old_color="#2D4963"/><path style="fill:#E5E5E5" d="M461.114,426.115L461.114,426.115c-59.744-56.829-139.044-88.52-221.497-88.52H111.562 c-41.362,0-74.894-33.532-74.894-74.894v-90.809c0-41.362,33.532-74.894,74.894-74.894h128.054 c82.455,0,161.755-31.693,221.497-88.52l0,0V426.115z" data-original="#FCD577" class="" data-old_color="#E4E3E3"/><path style="fill:#A83B06" d="M89.831,262.7v-90.809c0-41.362,33.53-74.894,74.894-74.894h-53.163 c-41.362,0-74.894,33.53-74.894,74.894V262.7c0,41.362,33.53,74.894,74.894,74.894h53.162 C123.361,337.593,89.831,304.063,89.831,262.7z" data-original="#EAC36E" class="active-path" data-old_color="#A53A05"/><path style="fill:#E5E5E5" d="M454.652,148.341c33.223,10.37,57.347,41.378,57.347,78.029s-24.124,67.66-57.347,78.029" data-original="#FCD577" class="" data-old_color="#E4E3E3"/><path style="fill:#041876" d="M461.114,8.478v417.643c-15.913-15.137-33.21-28.498-51.591-39.939V48.418 C427.905,36.976,445.2,23.616,461.114,8.478z" data-original="#FF6F52" class="" data-old_color="#041875"/></symbol><symbol id="login-square-arrow-button-outline" viewBox="0 0 612 612"><title>login-square-arrow-button-outline</title><path d="M331.685,425.378c-7.478,7.479-7.478,19.584,0,27.043c7.479,7.478,19.584,7.478,27.043,0l131.943-131.962 c3.979-3.979,5.681-9.276,5.412-14.479c0.269-5.221-1.434-10.499-5.412-14.477L358.728,159.56 c-7.459-7.478-19.584-7.478-27.043,0c-7.478,7.478-7.478,19.584,0,27.042l100.272,100.272H19.125C8.568,286.875,0,295.443,0,306 c0,10.557,8.568,19.125,19.125,19.125h412.832L331.685,425.378z M535.5,38.25H153c-42.247,0-76.5,34.253-76.5,76.5v76.5h38.25 v-76.5c0-21.114,17.117-38.25,38.25-38.25h382.5c21.133,0,38.25,17.136,38.25,38.25v382.5c0,21.114-17.117,38.25-38.25,38.25H153 c-21.133,0-38.25-17.117-38.25-38.25v-76.5H76.5v76.5c0,42.247,34.253,76.5,76.5,76.5h382.5c42.247,0,76.5-34.253,76.5-76.5 v-382.5C612,72.503,577.747,38.25,535.5,38.25z"/></symbol><symbol id="delivery-truck-silhouette" viewBox="0 0 493.349 493.349"><title>delivery-truck-silhouette</title><path d="M487.932,51.1c-3.613-3.612-7.905-5.424-12.847-5.424h-292.36c-4.948,0-9.233,1.812-12.847,5.424 c-3.615,3.617-5.424,7.902-5.424,12.85v54.818h-45.683c-5.14,0-10.71,1.237-16.705,3.711c-5.996,2.478-10.801,5.518-14.416,9.135 l-56.532,56.531c-2.473,2.474-4.612,5.327-6.424,8.565c-1.807,3.23-3.14,6.14-3.997,8.705c-0.855,2.572-1.477,6.089-1.854,10.566 c-0.378,4.475-0.62,7.758-0.715,9.853c-0.091,2.092-0.091,5.71,0,10.85c0.096,5.142,0.144,8.47,0.144,9.995v91.36 c-4.947,0-9.229,1.807-12.847,5.428C1.809,347.076,0,351.363,0,356.312c0,2.851,0.378,5.376,1.14,7.562 c0.763,2.19,2.046,3.949,3.858,5.284c1.807,1.335,3.378,2.426,4.709,3.285c1.335,0.855,3.571,1.424,6.711,1.711 s5.28,0.479,6.423,0.575c1.143,0.089,3.568,0.089,7.279,0c3.715-0.096,5.855-0.144,6.427-0.144h18.271 c0,20.17,7.139,37.397,21.411,51.674c14.277,14.274,31.501,21.413,51.678,21.413c20.175,0,37.401-7.139,51.675-21.413 c14.277-14.276,21.411-31.504,21.411-51.674H310.63c0,20.17,7.139,37.397,21.412,51.674c14.271,14.274,31.498,21.413,51.675,21.413 c20.181,0,37.397-7.139,51.675-21.413c14.277-14.276,21.412-31.504,21.412-51.674c0.568,0,2.711,0.048,6.42,0.144 c3.713,0.089,6.14,0.089,7.282,0c1.144-0.096,3.289-0.288,6.427-0.575c3.139-0.287,5.373-0.855,6.708-1.711s2.901-1.95,4.709-3.285 c1.81-1.335,3.097-3.094,3.856-5.284c0.77-2.187,1.143-4.712,1.143-7.562V63.953C493.353,59.004,491.546,54.724,487.932,51.1z M153.597,400.28c-7.229,7.23-15.797,10.854-25.694,10.854c-9.898,0-18.464-3.62-25.697-10.854 c-7.233-7.228-10.848-15.797-10.848-25.693c0-9.897,3.619-18.47,10.848-25.701c7.232-7.228,15.798-10.848,25.697-10.848 c9.897,0,18.464,3.617,25.694,10.848c7.236,7.231,10.853,15.804,10.853,25.701C164.45,384.483,160.833,393.052,153.597,400.28z M164.45,228.403H54.814v-8.562c0-2.475,0.855-4.569,2.568-6.283l55.674-55.672c1.712-1.714,3.809-2.568,6.283-2.568h45.111 V228.403z M409.41,400.28c-7.23,7.23-15.797,10.854-25.693,10.854c-9.9,0-18.47-3.62-25.7-10.854 c-7.231-7.228-10.849-15.797-10.849-25.693c0-9.897,3.617-18.47,10.849-25.701c7.23-7.228,15.8-10.848,25.7-10.848 c9.896,0,18.463,3.617,25.693,10.848c7.231,7.235,10.852,15.804,10.852,25.701C420.262,384.483,416.648,393.052,409.41,400.28z"/></symbol><symbol id="checked" viewBox="0 0 26 26"><title>checked</title><path d="m.3,14c-0.2-0.2-0.3-0.5-0.3-0.7s0.1-0.5 0.3-0.7l1.4-1.4c0.4-0.4 1-0.4 1.4,0l.1,.1 5.5,5.9c0.2,0.2 0.5,0.2 0.7,0l13.4-13.9h0.1v-8.88178e-16c0.4-0.4 1-0.4 1.4,0l1.4,1.4c0.4,0.4 0.4,1 0,1.4l0,0-16,16.6c-0.2,0.2-0.4,0.3-0.7,0.3-0.3,0-0.5-0.1-0.7-0.3l-7.8-8.4-.2-.3z"/></symbol><symbol id="close-envelope" viewBox="0 0 14 14"><title>close-envelope</title><path style="fill:#030104;" d="M7,9L5.268,7.484l-4.952,4.245C0.496,11.896,0.739,12,1.007,12h11.986 c0.267,0,0.509-0.104,0.688-0.271L8.732,7.484L7,9z"/><path style="fill:#030104;" d="M13.684,2.271C13.504,2.103,13.262,2,12.993,2H1.007C0.74,2,0.498,2.104,0.318,2.273L7,8 L13.684,2.271z"/><polygon style="fill:#030104;" points="0,2.878 0,11.186 4.833,7.079 "/><polygon style="fill:#030104;" points="9.167,7.079 14,11.186 14,2.875 "/></symbol><symbol id="credit-card" viewBox="0 0 548.176 548.176"><title>credit-card</title><path d="M534.754,68.238c-8.945-8.945-19.698-13.417-32.258-13.417H45.681c-12.562,0-23.313,4.471-32.264,13.417 C4.471,77.185,0,87.936,0,100.499v347.173c0,12.566,4.471,23.318,13.417,32.264c8.951,8.946,19.702,13.419,32.264,13.419h456.815 c12.56,0,23.312-4.473,32.258-13.419c8.945-8.945,13.422-19.697,13.422-32.264V100.499 C548.176,87.936,543.699,77.185,534.754,68.238z M511.627,447.679c0,2.478-0.903,4.613-2.711,6.427 c-1.807,1.8-3.949,2.703-6.42,2.703H45.681c-2.473,0-4.615-0.903-6.423-2.71c-1.807-1.813-2.712-3.949-2.712-6.427V274.088 h475.082V447.679z M511.627,164.449H36.545v-63.954c0-2.474,0.902-4.611,2.712-6.423c1.809-1.803,3.951-2.708,6.423-2.708h456.815 c2.471,0,4.613,0.901,6.42,2.708c1.808,1.812,2.711,3.949,2.711,6.423V164.449L511.627,164.449z"/><rect x="73.092" y="383.719" width="73.089" height="36.548"/><rect x="182.728" y="383.719" width="109.634" height="36.548"/></symbol><symbol id="agenda" viewBox="0 0 512.001 512.001"><title>agenda</title><g> <g> <path d="M435.2,51.201v-25.6c0-14.14-11.46-25.6-25.6-25.6H51.2c-14.14,0-25.6,11.46-25.6,25.6v38.4H12.8 c-7.074,0-12.8,5.726-12.8,12.8c0,7.074,5.726,12.8,12.8,12.8h12.8v25.6H12.8c-7.074,0-12.8,5.726-12.8,12.8s5.726,12.8,12.8,12.8 h12.8v25.6H12.8c-7.074,0-12.8,5.726-12.8,12.8s5.726,12.8,12.8,12.8h12.8v25.6H12.8c-7.074,0-12.8,5.726-12.8,12.8 c0,7.074,5.726,12.8,12.8,12.8h12.8v25.6H12.8c-7.074,0-12.8,5.726-12.8,12.8c0,7.074,5.726,12.8,12.8,12.8h12.8v25.6H12.8 c-7.074,0-12.8,5.726-12.8,12.8c0,7.074,5.726,12.8,12.8,12.8h12.8v25.6H12.8c-7.074,0-12.8,5.726-12.8,12.8 c0,7.074,5.726,12.8,12.8,12.8h12.8v25.6H12.8c-7.074,0-12.8,5.726-12.8,12.8c0,7.074,5.726,12.8,12.8,12.8h12.8v38.4 c0,14.14,11.46,25.6,25.6,25.6h358.4c14.14,0,25.6-11.46,25.6-25.6V238.797l-25.6,25.6v222.003H51.2v-38.4H64 c7.074,0,12.8-5.726,12.8-12.8c0-7.074-5.726-12.8-12.8-12.8H51.2v-25.6H64c7.074,0,12.8-5.726,12.8-12.8 c0-7.074-5.726-12.8-12.8-12.8H51.2v-25.6H64c7.074,0,12.8-5.726,12.8-12.8c0-7.074-5.726-12.8-12.8-12.8H51.2v-25.6H64 c7.074,0,12.8-5.726,12.8-12.8c0-7.074-5.726-12.8-12.8-12.8H51.2v-25.6H64c7.074,0,12.8-5.726,12.8-12.8 c0-7.074-5.726-12.8-12.8-12.8H51.2v-25.6H64c7.074,0,12.8-5.726,12.8-12.8s-5.726-12.8-12.8-12.8H51.2v-25.6H64 c7.074,0,12.8-5.726,12.8-12.8s-5.726-12.8-12.8-12.8H51.2v-25.6H64c7.074,0,12.8-5.726,12.8-12.8c0-7.074-5.726-12.8-12.8-12.8 H51.2v-38.4h358.4v25.6H435.2z"/> </g> </g><g> <g> <path d="M504.499,97.101l-25.6-25.6c-4.992-5.001-11.546-7.501-18.099-7.501c-6.554,0-13.107,2.5-18.099,7.501l-5.308,5.299H384 c-3.396,0-6.647,1.348-9.054,3.746l-76.8,76.8l18.099,18.099l73.054-73.045h22.494L212.301,301.901 c-1.946,1.946-3.567,4.19-4.796,6.656l-25.6,51.2c-4.932,9.856-2.995,21.76,4.796,29.551c4.915,4.915,11.469,7.501,18.108,7.501 c3.883,0,7.799-0.887,11.443-2.705l51.2-25.6c2.458-1.229,4.71-2.85,6.656-4.796l230.4-230.4 C514.5,123.307,514.5,107.094,504.499,97.101z M204.8,371.201l19.567-39.134l19.567,19.558L204.8,371.201z M265.054,336.547 l-25.6-25.6L460.8,89.601l25.6,25.6L265.054,336.547z"/> </g> </g></symbol><symbol id="i-know" viewBox="0 0 310.522 310.522"><title>i-know</title><path d="M237.52,88.174c-6.091,0-11.723,1.993-16.287,5.357c-4.472-9.153-13.876-15.474-24.731-15.474 c-6.107,0-11.753,2.003-16.323,5.383c-4.486-9.115-13.869-15.404-24.695-15.404c-4.906,0-9.517,1.291-13.509,3.551V27.508 C141.976,12.34,129.635,0,114.467,0S86.959,12.34,86.959,27.508v102.081c-3.119-1.834-6.601-3.048-10.295-3.543 c-7.288-0.977-14.51,0.942-20.351,5.4c-5.84,4.459-9.595,10.926-10.571,18.208s0.942,14.51,5.401,20.35l46.239,60.561 c5.391,10.09,12.764,19.153,21.876,26.678l0.004,46.279c0,3.866,3.134,7,7,7h99.461c3.866,0,7-3.134,7-7l0.004-46.279 c20.573-16.99,32.301-41.805,32.301-68.624v-72.938C265.029,100.514,252.688,88.174,237.52,88.174z M62.271,161.508 c-2.189-2.868-3.132-6.417-2.652-9.993s2.323-6.751,5.191-8.941c2.867-2.189,6.417-3.134,9.993-2.652 c3.576,0.479,6.752,2.323,8.941,5.19l3.215,4.211v39.297c0,1.824,0.059,3.638,0.167,5.442L62.271,161.508z M251.029,188.62 c0,23.592-10.771,45.345-29.549,59.681c-1.734,1.324-2.752,3.381-2.752,5.563l-0.003,42.658h-85.463l-0.003-42.658 c0-2.182-1.018-4.239-2.752-5.563c-18.778-14.336-29.548-36.089-29.548-59.681V27.508c0-7.449,6.06-13.508,13.509-13.508 c7.448,0,13.508,6.06,13.508,13.508v117.373c0,3.866,3.134,7,7,7s7-3.134,7-7V95.544c0-7.449,6.06-13.509,13.509-13.509 s13.509,6.06,13.509,13.509v50.346c0,3.866,3.134,7,7,7s7-3.134,7-7v-40.325c0-7.449,6.06-13.508,13.509-13.508 s13.509,6.06,13.509,13.508v7.155c0,0.338,0.032,0.667,0.078,0.992c-0.046,0.652-0.078,1.307-0.078,1.97v29.198 c0,3.866,3.134,7,7,7s7-3.134,7-7v-29.198c0-7.449,6.06-13.509,13.509-13.509s13.509,6.06,13.509,13.509V188.62z"/></symbol><symbol id="settings-work-tool" viewBox="0 0 268.765 268.765"><title>settings-work-tool</title><path style="fill-rule:evenodd;clip-rule:evenodd;" d="M267.92,119.461c-0.425-3.778-4.83-6.617-8.639-6.617 c-12.315,0-23.243-7.231-27.826-18.414c-4.682-11.454-1.663-24.812,7.515-33.231c2.889-2.641,3.24-7.062,0.817-10.133 c-6.303-8.004-13.467-15.234-21.289-21.5c-3.063-2.458-7.557-2.116-10.213,0.825c-8.01,8.871-22.398,12.168-33.516,7.529 c-11.57-4.867-18.866-16.591-18.152-29.176c0.235-3.953-2.654-7.39-6.595-7.849c-10.038-1.161-20.164-1.197-30.232-0.08 c-3.896,0.43-6.785,3.786-6.654,7.689c0.438,12.461-6.946,23.98-18.401,28.672c-10.985,4.487-25.272,1.218-33.266-7.574 c-2.642-2.896-7.063-3.252-10.141-0.853c-8.054,6.319-15.379,13.555-21.74,21.493c-2.481,3.086-2.116,7.559,0.802,10.214 c9.353,8.47,12.373,21.944,7.514,33.53c-4.639,11.046-16.109,18.165-29.24,18.165c-4.261-0.137-7.296,2.723-7.762,6.597 c-1.182,10.096-1.196,20.383-0.058,30.561c0.422,3.794,4.961,6.608,8.812,6.608c11.702-0.299,22.937,6.946,27.65,18.415 c4.698,11.454,1.678,24.804-7.514,33.23c-2.875,2.641-3.24,7.055-0.817,10.126c6.244,7.953,13.409,15.19,21.259,21.508 c3.079,2.481,7.559,2.131,10.228-0.81c8.04-8.893,22.427-12.184,33.501-7.536c11.599,4.852,18.895,16.575,18.181,29.167 c-0.233,3.955,2.67,7.398,6.595,7.85c5.135,0.599,10.301,0.898,15.481,0.898c4.917,0,9.835-0.27,14.752-0.817 c3.897-0.43,6.784-3.786,6.653-7.696c-0.451-12.454,6.946-23.973,18.386-28.657c11.059-4.517,25.286-1.211,33.281,7.572 c2.657,2.89,7.047,3.239,10.142,0.848c8.039-6.304,15.349-13.534,21.74-21.494c2.48-3.079,2.13-7.559-0.803-10.213 c-9.353-8.47-12.388-21.946-7.529-33.524c4.568-10.899,15.612-18.217,27.491-18.217l1.662,0.043 c3.853,0.313,7.398-2.655,7.865-6.588C269.044,139.917,269.058,129.639,267.92,119.461z M134.595,179.491 c-24.718,0-44.824-20.106-44.824-44.824c0-24.717,20.106-44.824,44.824-44.824c24.717,0,44.823,20.107,44.823,44.824 C179.418,159.385,159.312,179.491,134.595,179.491z"/></symbol><symbol id="add" viewBox="0 0 42 42"><title>add</title><path d="M37.059,16H26V4.941C26,2.224,23.718,0,21,0s-5,2.224-5,4.941V16H4.941C2.224,16,0,18.282,0,21s2.224,5,4.941,5H16v11.059 C16,39.776,18.282,42,21,42s5-2.224,5-4.941V26h11.059C39.776,26,42,23.718,42,21S39.776,16,37.059,16z"/></symbol></svg>